<?xml version="1.0" standalone="no"?>
<!DOCTYPE svg PUBLIC "-//W3C//DTD SVG 20010904//EN"
 "http://www.w3.org/TR/2001/REC-SVG-20010904/DTD/svg10.dtd">
<svg version="1.0" xmlns="http://www.w3.org/2000/svg"
 width="50.000000pt" height="50.000000pt" viewBox="0 0 520.000000 434.000000"
 preserveAspectRatio="xMidYMid meet">

<g transform="translate(0.000000,434.000000) scale(0.100000,-0.100000)"
fill="#000000" stroke="none">
<path d="M3925 4288 c-2699 -1007 -3388 -1261 -3459 -1273 -208 -36 -382 -201
-431 -406 -18 -79 -22 -553 -4 -592 19 -41 59 -57 148 -57 149 0 252 -36 344
-120 253 -232 130 -657 -211 -729 -29 -6 -89 -11 -133 -11 -89 0 -129 -16
-148 -57 -18 -39 -14 -513 4 -592 44 -186 201 -349 380 -396 52 -13 305 -15
2165 -15 2010 0 2108 1 2171 18 179 50 330 209 374 393 11 48 15 127 15 322
l0 259 -34 34 c-33 33 -35 34 -121 34 -117 0 -211 23 -282 69 -327 211 -236
700 145 780 29 6 91 11 138 11 84 0 87 1 120 34 l34 34 0 258 c0 293 -8 344
-66 455 -40 75 -130 169 -208 214 -27 16 -78 37 -114 46 -36 10 -66 20 -68 21
-1 2 -83 242 -182 534 -99 293 -190 550 -201 573 -51 100 -153 162 -271 167
-41 2 -88 -1 -105 -8z m150 -218 c30 -19 39 -37 102 -223 193 -562 277 -816
272 -821 -3 -3 -748 -5 -1654 -4 l-1649 3 1425 532 c783 292 1435 532 1448
532 13 1 38 -8 56 -19z m-2345 -1336 c0 -70 2 -78 29 -105 24 -23 38 -29 73
-29 76 1 108 43 108 145 l0 65 1373 -2 1372 -3 50 -23 c58 -27 129 -92 155
-142 29 -57 40 -142 40 -312 l0 -158 -32 0 c-66 -1 -175 -31 -257 -71 -211
-104 -350 -327 -351 -561 0 -195 73 -358 217 -488 98 -87 274 -159 391 -160
l32 0 0 -158 c0 -170 -11 -255 -40 -312 -26 -50 -97 -115 -155 -142 l-50 -23
-1372 -3 -1373 -2 0 65 c0 102 -32 144 -108 145 -35 0 -49 -6 -73 -29 -27 -27
-29 -35 -29 -105 l0 -76 -602 0 c-625 0 -656 2 -733 43 -38 19 -108 92 -128
132 -26 52 -37 143 -37 305 l0 157 61 6 c151 16 279 77 390 187 126 124 189
274 189 450 0 176 -63 326 -189 450 -111 110 -239 171 -390 187 l-61 6 0 157
c0 162 11 253 37 305 20 40 90 113 128 132 74 40 102 41 728 42 l607 1 0 -76z"/>
<path d="M2488 2519 c-17 -9 -18 -34 -18 -298 0 -320 3 -340 68 -466 25 -47
61 -94 111 -142 l74 -73 -270 0 c-310 0 -303 2 -303 -84 0 -72 38 -241 72
-324 64 -154 203 -323 343 -419 416 -282 951 -234 1306 116 137 135 220 289
258 478 61 297 -24 587 -239 817 l-60 64 0 160 c0 149 -1 162 -19 172 -35 18
-51 11 -155 -62 -55 -39 -119 -84 -141 -100 l-40 -28 -75 22 c-64 18 -102 21
-250 22 -150 0 -186 -3 -254 -22 l-78 -22 -137 100 c-134 98 -159 109 -193 89z
m1222 -569 c-7 -42 -25 -92 -50 -137 -41 -74 -65 -98 -325 -326 l-120 -105 -8
30 c-5 17 -18 33 -32 38 -36 14 -73 -3 -82 -38 l-8 -30 -120 105 c-255 224
-284 252 -322 321 -21 37 -43 94 -50 127 -12 57 -19 415 -8 415 3 0 48 -31
101 -70 55 -40 107 -70 120 -70 13 0 59 10 101 23 67 19 101 22 248 22 148 0
179 -3 242 -22 39 -13 80 -23 90 -23 11 0 67 33 124 73 l104 73 3 -171 c1 -93
-2 -199 -8 -235z m239 -115 c64 -132 76 -190 76 -355 0 -140 -2 -148 -36 -247
-42 -120 -81 -187 -161 -279 -161 -186 -381 -290 -640 -301 -135 -6 -204 2
-318 39 -199 64 -391 214 -493 386 l-17 30 43 25 c87 51 176 171 192 260 l7
37 127 0 126 -1 138 -119 c76 -66 147 -120 157 -120 20 0 478 391 543 463 74
83 137 236 137 331 l0 41 40 -55 c22 -30 58 -91 79 -135z m-1469 -422 c0 -30
-57 -119 -96 -151 -60 -50 -70 -48 -87 17 -8 31 -18 77 -22 104 l-6 47 105 0
c94 0 106 -2 106 -17z"/>
<path d="M2902 1854 c-42 -29 -18 -104 35 -104 49 0 72 76 31 104 -12 9 -27
16 -33 16 -6 0 -21 -7 -33 -16z"/>
<path d="M3332 1854 c-42 -29 -18 -104 35 -104 49 0 72 76 31 104 -12 9 -27
16 -33 16 -6 0 -21 -7 -33 -16z"/>
<path d="M1794 2260 c-12 -4 -31 -21 -43 -36 -20 -25 -21 -37 -21 -244 0 -201
1 -219 20 -242 47 -60 133 -57 171 6 17 28 19 52 19 234 0 228 -6 253 -65 278
-39 16 -51 16 -81 4z"/>
<path d="M1759 1331 l-29 -29 0 -222 0 -222 34 -34 c23 -23 43 -34 63 -34 38
0 91 34 103 66 6 14 10 115 10 225 0 253 -10 279 -110 279 -33 0 -48 -6 -71
-29z"/>
</g>
</svg>
