<?xml version="1.0" encoding="iso-8859-1"?>
<!-- Generator: Adobe Illustrator 19.0.0, SVG Export Plug-In . SVG Version: 6.00 Build 0)  -->
<svg version="1.1" id="Layer_1" xmlns="http://www.w3.org/2000/svg" xmlns:xlink="http://www.w3.org/1999/xlink" x="0px" y="0px"
	 viewBox="0 0 512 512" style="enable-background:new 0 0 512 512;" xml:space="preserve">
<path style="fill:#1db954;" d="M353.05,297.424c-31.554,0-61.219-12.288-83.532-34.6l-14.549-14.495l-14.566,14.512
	c-22.295,22.294-51.961,34.582-83.514,34.582c-31.558,0-61.226-12.288-83.537-34.6c-24.5-24.497-38.571-58.251-41.824-100.319
	c-2.554-33.035,2.486-62.623,4.383-73.76c0.989-5.815,5.544-10.37,11.358-11.365c31.194-5.334,137.314-18.394,193.152,37.442
	c2.911,2.911,7.92,7.764,14.549,14.097c6.618-6.323,11.626-11.176,14.55-14.099c55.835-55.837,161.956-42.776,193.15-37.441
	c5.815,0.994,10.367,5.551,11.358,11.365c2.19,12.862,8.009,47.026,3.313,84.34c-0.959,7.614-7.905,13.006-15.525,12.053
	c-7.614-0.959-13.011-7.909-12.053-15.525c3.301-26.217,0.688-51.18-1.545-66.321c-32.489-4.407-116.872-10.987-159.046,31.186
	c-4.197,4.196-11.414,11.119-16.731,16.19c-9.798,9.345-25.146,9.345-34.943,0c-7.744-7.386-13.373-12.833-16.73-16.189
	C178.612,92.325,94.285,98.877,61.761,103.285c-9.019,63.092,1.476,110.119,31.243,139.885c17.062,17.063,39.75,26.46,63.883,26.46
	c24.13,0,46.816-9.397,63.879-26.46l15.982-15.922c10.049-10.01,26.395-10.009,36.44,0l15.964,15.904
	c17.083,17.081,39.768,26.479,63.898,26.479c24.133,0,46.82-9.397,63.883-26.46c6.856-6.854,12.769-14.799,17.58-23.613
	c3.677-6.737,12.117-9.217,18.857-5.541c6.737,3.677,9.218,12.12,5.541,18.857c-6.081,11.143-13.593,21.22-22.323,29.95
	C414.274,285.136,384.606,297.424,353.05,297.424z"/>
<path style="fill:#1db954;" d="M211.26,178.527c2.451,2.757,2.451,6.897,0,9.654c-8.347,9.388-28.788,29.193-52.68,29.193
	s-44.332-19.805-52.68-29.193c-2.451-2.757-2.451-6.897,0-9.654c8.347-9.388,28.788-29.193,52.68-29.193
	S202.913,169.139,211.26,178.527z"/>
<path style="fill:#1db954;" d="M158.581,231.27c-28.68,0-51.823-21.211-63.066-33.855c-7.127-8.017-7.127-20.107,0-28.123
	c11.243-12.645,34.386-33.855,63.066-33.855c28.681,0,51.824,21.211,63.065,33.855c7.128,8.016,7.128,20.107,0,28.123
	C210.404,210.058,187.262,231.27,158.581,231.27z M120.467,183.353c7.788,7.734,22.675,20.122,38.113,20.122
	s30.325-12.388,38.113-20.122c-7.788-7.735-22.673-20.122-38.113-20.122C143.142,163.231,128.255,175.618,120.467,183.353z"/>
<path style="fill:#1db954;" d="M404.035,178.527c2.452,2.757,2.452,6.897,0,9.654c-8.347,9.388-28.788,29.193-52.68,29.193
	c-23.892,0-44.332-19.805-52.68-29.193c-2.452-2.757-2.452-6.897,0-9.654c8.347-9.388,28.788-29.193,52.68-29.193
	C375.246,149.334,395.688,169.139,404.035,178.527z"/>
<path style="fill:#1db954;" d="M351.356,231.27c-28.68,0-51.823-21.211-63.066-33.855c-7.127-8.017-7.127-20.107,0-28.123
	c11.243-12.645,34.386-33.855,63.066-33.855c28.681,0,51.824,21.211,63.065,33.855c7.128,8.016,7.128,20.107,0,28.123
	C403.179,210.058,380.037,231.27,351.356,231.27z M313.242,183.353c7.788,7.734,22.675,20.122,38.113,20.122
	c15.439,0,30.325-12.388,38.113-20.122c-7.788-7.735-22.673-20.122-38.113-20.122C335.917,163.231,321.029,175.618,313.242,183.353z
	"/>
<circle style="fill:#1db954;" cx="49.719" cy="92.126" r="26.866"/>
<path style="fill:#1db954" d="M49.719,132.894c-22.477,0-40.765-18.286-40.765-40.764s18.289-40.765,40.765-40.765
	s40.764,18.286,40.764,40.764S72.196,132.894,49.719,132.894z M49.719,79.16c-7.152,0-12.97,5.819-12.97,12.969
	c0,7.15,5.819,12.969,12.97,12.969s12.969-5.819,12.969-12.969S56.871,79.16,49.719,79.16z"/>
<circle style="fill:#1db954;" cx="102.229" cy="77.475" r="26.866"/>
<path style="fill:#1db954;" d="M102.231,118.239c-22.477,0-40.764-18.286-40.764-40.764S79.754,36.71,102.231,36.71
	s40.764,18.287,40.764,40.765S124.709,118.239,102.231,118.239z M102.231,64.506c-7.152,0-12.969,5.819-12.969,12.97
	s5.819,12.969,12.969,12.969S115.2,84.627,115.2,77.477C115.2,70.324,109.383,64.506,102.231,64.506z"/>
<circle style="fill:#1db954;" cx="40.764" cy="145.867" r="26.866"/>
<path style="fill:#1db954;" d="M40.764,186.627C18.286,186.627,0,168.34,0,145.864s18.286-40.765,40.764-40.765
	s40.764,18.287,40.764,40.765S63.241,186.627,40.764,186.627z M40.764,132.894c-7.152,0-12.969,5.819-12.969,12.97
	s5.819,12.969,12.969,12.969s12.969-5.819,12.969-12.969C53.733,138.712,47.915,132.894,40.764,132.894z"/>
<circle style="fill:#1db954;" cx="462.28" cy="92.126" r="26.866"/>
<path style="fill:#1db954" d="M462.281,132.894c-22.478,0-40.764-18.286-40.764-40.764s18.286-40.764,40.764-40.764
	s40.765,18.286,40.765,40.764S484.757,132.894,462.281,132.894z M462.281,79.16c-7.152,0-12.969,5.819-12.969,12.969
	c0,7.15,5.819,12.969,12.969,12.969c7.152,0,12.97-5.819,12.97-12.969S469.433,79.16,462.281,79.16z"/>
<circle style="fill:#1db954;" cx="409.776" cy="77.475" r="26.866"/>
<path style="fill:#1db954;" d="M409.769,118.239c-22.478,0-40.764-18.286-40.764-40.764s18.286-40.765,40.764-40.765
	s40.764,18.287,40.764,40.765S432.246,118.239,409.769,118.239z M409.769,64.506c-7.152,0-12.969,5.819-12.969,12.97
	s5.819,12.969,12.969,12.969s12.969-5.819,12.969-12.969C422.738,70.324,416.919,64.506,409.769,64.506z"/>
<circle style="fill:#1db954;" cx="471.229" cy="145.867" r="26.866"/>
<g>
	<path style="fill:#1db954;" d="M471.236,186.627c-22.478,0-40.764-18.286-40.764-40.764c0-22.478,18.286-40.765,40.764-40.765
		S512,123.386,512,145.864S493.714,186.627,471.236,186.627z M471.236,132.894c-7.152,0-12.969,5.819-12.969,12.97
		s5.819,12.969,12.969,12.969s12.969-5.819,12.969-12.969C484.205,138.712,478.387,132.894,471.236,132.894z"/>
	<path style="fill:#1db954;" d="M46.488,475.29c-7.675,0-13.897-6.222-13.897-13.897V172.112c0-7.675,6.222-13.897,13.897-13.897
		s13.897,6.222,13.897,13.897v289.281C60.385,469.068,54.163,475.29,46.488,475.29z"/>
</g>
<g>
</g>
<g>
</g>
<g>
</g>
<g>
</g>
<g>
</g>
<g>
</g>
<g>
</g>
<g>
</g>
<g>
</g>
<g>
</g>
<g>
</g>
<g>
</g>
<g>
</g>
<g>
</g>
<g>
</g>
</svg>
